<mxfile host="app.diagrams.net" agent="Mozilla/5.0 (Macintosh; Intel Mac OS X 10_15_7) AppleWebKit/537.36 (KHTML, like Gecko) Chrome/138.0.0.0 Safari/537.36" version="28.0.5">
  <diagram id="w7IoKJW8Ry9F-LALSEU0" name="Page-1">
    <mxGraphModel dx="976" dy="563" grid="1" gridSize="10" guides="1" tooltips="1" connect="1" arrows="1" fold="1" page="1" pageScale="1" pageWidth="850" pageHeight="1100" math="0" shadow="0">
      <root>
        <mxCell id="0" />
        <mxCell id="1" parent="0" />
        <mxCell id="npTFrT4JdzMl8Mm1a12r-3" style="edgeStyle=orthogonalEdgeStyle;rounded=0;orthogonalLoop=1;jettySize=auto;html=1;exitX=1;exitY=0.5;exitDx=0;exitDy=0;entryX=0;entryY=0.5;entryDx=0;entryDy=0;" parent="1" source="npTFrT4JdzMl8Mm1a12r-1" target="npTFrT4JdzMl8Mm1a12r-2" edge="1">
          <mxGeometry relative="1" as="geometry" />
        </mxCell>
        <mxCell id="npTFrT4JdzMl8Mm1a12r-26" style="edgeStyle=orthogonalEdgeStyle;rounded=0;orthogonalLoop=1;jettySize=auto;html=1;exitX=0.5;exitY=1;exitDx=0;exitDy=0;entryX=0.5;entryY=0;entryDx=0;entryDy=0;" parent="1" source="npTFrT4JdzMl8Mm1a12r-1" target="npTFrT4JdzMl8Mm1a12r-16" edge="1">
          <mxGeometry relative="1" as="geometry" />
        </mxCell>
        <mxCell id="npTFrT4JdzMl8Mm1a12r-1" value="Model input" style="rounded=1;whiteSpace=wrap;html=1;" parent="1" vertex="1">
          <mxGeometry x="80" y="160" width="80" height="40" as="geometry" />
        </mxCell>
        <mxCell id="npTFrT4JdzMl8Mm1a12r-10" style="edgeStyle=orthogonalEdgeStyle;rounded=0;orthogonalLoop=1;jettySize=auto;html=1;exitX=1;exitY=0.5;exitDx=0;exitDy=0;entryX=0;entryY=0.5;entryDx=0;entryDy=0;" parent="1" source="npTFrT4JdzMl8Mm1a12r-2" target="npTFrT4JdzMl8Mm1a12r-4" edge="1">
          <mxGeometry relative="1" as="geometry" />
        </mxCell>
        <mxCell id="npTFrT4JdzMl8Mm1a12r-2" value="Pre-processing" style="rounded=1;whiteSpace=wrap;html=1;" parent="1" vertex="1">
          <mxGeometry x="240" y="160" width="80" height="40" as="geometry" />
        </mxCell>
        <mxCell id="npTFrT4JdzMl8Mm1a12r-11" style="edgeStyle=orthogonalEdgeStyle;rounded=0;orthogonalLoop=1;jettySize=auto;html=1;exitX=0.5;exitY=1;exitDx=0;exitDy=0;entryX=0.5;entryY=0;entryDx=0;entryDy=0;" parent="1" source="npTFrT4JdzMl8Mm1a12r-5" target="npTFrT4JdzMl8Mm1a12r-4" edge="1">
          <mxGeometry relative="1" as="geometry" />
        </mxCell>
        <mxCell id="npTFrT4JdzMl8Mm1a12r-5" value="Model registry" style="rounded=1;whiteSpace=wrap;html=1;" parent="1" vertex="1">
          <mxGeometry x="360" y="40" width="80" height="40" as="geometry" />
        </mxCell>
        <mxCell id="npTFrT4JdzMl8Mm1a12r-13" style="edgeStyle=orthogonalEdgeStyle;rounded=0;orthogonalLoop=1;jettySize=auto;html=1;exitX=1;exitY=0.5;exitDx=0;exitDy=0;entryX=0;entryY=0.5;entryDx=0;entryDy=0;" parent="1" source="npTFrT4JdzMl8Mm1a12r-6" target="npTFrT4JdzMl8Mm1a12r-7" edge="1">
          <mxGeometry relative="1" as="geometry" />
        </mxCell>
        <mxCell id="npTFrT4JdzMl8Mm1a12r-14" style="edgeStyle=orthogonalEdgeStyle;rounded=0;orthogonalLoop=1;jettySize=auto;html=1;exitX=0.5;exitY=1;exitDx=0;exitDy=0;entryX=0.5;entryY=0;entryDx=0;entryDy=0;" parent="1" source="npTFrT4JdzMl8Mm1a12r-7" target="npTFrT4JdzMl8Mm1a12r-8" edge="1">
          <mxGeometry relative="1" as="geometry" />
        </mxCell>
        <mxCell id="npTFrT4JdzMl8Mm1a12r-7" value="Model output" style="rounded=1;whiteSpace=wrap;html=1;" parent="1" vertex="1">
          <mxGeometry x="640" y="160" width="80" height="40" as="geometry" />
        </mxCell>
        <mxCell id="npTFrT4JdzMl8Mm1a12r-8" value="Storage" style="rounded=1;whiteSpace=wrap;html=1;" parent="1" vertex="1">
          <mxGeometry x="640" y="280" width="80" height="40" as="geometry" />
        </mxCell>
        <mxCell id="wDbjFuBoIVrGoDplIFjY-1" style="edgeStyle=orthogonalEdgeStyle;rounded=0;orthogonalLoop=1;jettySize=auto;html=1;exitX=1;exitY=0.5;exitDx=0;exitDy=0;entryX=0;entryY=0.5;entryDx=0;entryDy=0;" edge="1" parent="1" source="npTFrT4JdzMl8Mm1a12r-9" target="npTFrT4JdzMl8Mm1a12r-8">
          <mxGeometry relative="1" as="geometry" />
        </mxCell>
        <mxCell id="npTFrT4JdzMl8Mm1a12r-9" value="Model monitoring" style="rounded=1;whiteSpace=wrap;html=1;" parent="1" vertex="1">
          <mxGeometry x="480" y="280" width="80" height="40" as="geometry" />
        </mxCell>
        <mxCell id="npTFrT4JdzMl8Mm1a12r-27" style="edgeStyle=orthogonalEdgeStyle;rounded=0;orthogonalLoop=1;jettySize=auto;html=1;exitX=1;exitY=0.5;exitDx=0;exitDy=0;" parent="1" source="npTFrT4JdzMl8Mm1a12r-16" target="npTFrT4JdzMl8Mm1a12r-18" edge="1">
          <mxGeometry relative="1" as="geometry" />
        </mxCell>
        <mxCell id="npTFrT4JdzMl8Mm1a12r-16" value="Security checks" style="rounded=1;whiteSpace=wrap;html=1;" parent="1" vertex="1">
          <mxGeometry x="80" y="360" width="80" height="40" as="geometry" />
        </mxCell>
        <mxCell id="npTFrT4JdzMl8Mm1a12r-29" style="edgeStyle=orthogonalEdgeStyle;rounded=0;orthogonalLoop=1;jettySize=auto;html=1;exitX=0.5;exitY=0;exitDx=0;exitDy=0;entryX=0.5;entryY=1;entryDx=0;entryDy=0;" parent="1" source="npTFrT4JdzMl8Mm1a12r-17" target="npTFrT4JdzMl8Mm1a12r-2" edge="1">
          <mxGeometry relative="1" as="geometry" />
        </mxCell>
        <mxCell id="npTFrT4JdzMl8Mm1a12r-17" value="API gateway" style="rounded=1;whiteSpace=wrap;html=1;" parent="1" vertex="1">
          <mxGeometry x="320" y="360" width="80" height="40" as="geometry" />
        </mxCell>
        <mxCell id="npTFrT4JdzMl8Mm1a12r-28" style="edgeStyle=orthogonalEdgeStyle;rounded=0;orthogonalLoop=1;jettySize=auto;html=1;exitX=1;exitY=0.5;exitDx=0;exitDy=0;entryX=0;entryY=0.5;entryDx=0;entryDy=0;" parent="1" source="npTFrT4JdzMl8Mm1a12r-18" target="npTFrT4JdzMl8Mm1a12r-17" edge="1">
          <mxGeometry relative="1" as="geometry" />
        </mxCell>
        <mxCell id="npTFrT4JdzMl8Mm1a12r-18" value="Load balancer" style="rounded=1;whiteSpace=wrap;html=1;" parent="1" vertex="1">
          <mxGeometry x="200" y="360" width="80" height="40" as="geometry" />
        </mxCell>
        <mxCell id="npTFrT4JdzMl8Mm1a12r-20" value="" style="swimlane;startSize=0;" parent="1" vertex="1">
          <mxGeometry x="200" y="120" width="400" height="120" as="geometry" />
        </mxCell>
        <mxCell id="npTFrT4JdzMl8Mm1a12r-4" value="Inference" style="rounded=1;whiteSpace=wrap;html=1;" parent="npTFrT4JdzMl8Mm1a12r-20" vertex="1">
          <mxGeometry x="160" y="40" width="80" height="40" as="geometry" />
        </mxCell>
        <mxCell id="npTFrT4JdzMl8Mm1a12r-6" value="Post-processing" style="rounded=1;whiteSpace=wrap;html=1;" parent="npTFrT4JdzMl8Mm1a12r-20" vertex="1">
          <mxGeometry x="280" y="40" width="80" height="40" as="geometry" />
        </mxCell>
        <mxCell id="npTFrT4JdzMl8Mm1a12r-12" style="edgeStyle=orthogonalEdgeStyle;rounded=0;orthogonalLoop=1;jettySize=auto;html=1;exitX=1;exitY=0.5;exitDx=0;exitDy=0;entryX=0;entryY=0.5;entryDx=0;entryDy=0;" parent="npTFrT4JdzMl8Mm1a12r-20" source="npTFrT4JdzMl8Mm1a12r-4" target="npTFrT4JdzMl8Mm1a12r-6" edge="1">
          <mxGeometry relative="1" as="geometry" />
        </mxCell>
        <mxCell id="npTFrT4JdzMl8Mm1a12r-25" value="" style="swimlane;startSize=0;" parent="1" vertex="1">
          <mxGeometry x="40" y="320" width="400" height="120" as="geometry" />
        </mxCell>
        <mxCell id="npTFrT4JdzMl8Mm1a12r-30" value="API" style="text;html=1;align=center;verticalAlign=middle;whiteSpace=wrap;rounded=0;" parent="npTFrT4JdzMl8Mm1a12r-25" vertex="1">
          <mxGeometry width="60" height="30" as="geometry" />
        </mxCell>
        <mxCell id="wDbjFuBoIVrGoDplIFjY-3" style="edgeStyle=orthogonalEdgeStyle;rounded=0;orthogonalLoop=1;jettySize=auto;html=1;exitX=0.5;exitY=0;exitDx=0;exitDy=0;entryX=0.5;entryY=1;entryDx=0;entryDy=0;" edge="1" parent="1" source="wDbjFuBoIVrGoDplIFjY-2" target="npTFrT4JdzMl8Mm1a12r-8">
          <mxGeometry relative="1" as="geometry" />
        </mxCell>
        <mxCell id="wDbjFuBoIVrGoDplIFjY-2" value="Data platform" style="rounded=1;whiteSpace=wrap;html=1;" vertex="1" parent="1">
          <mxGeometry x="640" y="400" width="80" height="40" as="geometry" />
        </mxCell>
        <mxCell id="wDbjFuBoIVrGoDplIFjY-4" value="Inference" style="text;html=1;align=center;verticalAlign=middle;whiteSpace=wrap;rounded=0;" vertex="1" parent="1">
          <mxGeometry x="680" y="240" width="80" height="40" as="geometry" />
        </mxCell>
        <mxCell id="wDbjFuBoIVrGoDplIFjY-5" value="Ground truth" style="text;html=1;align=center;verticalAlign=middle;whiteSpace=wrap;rounded=0;" vertex="1" parent="1">
          <mxGeometry x="680" y="360" width="80" height="40" as="geometry" />
        </mxCell>
      </root>
    </mxGraphModel>
  </diagram>
</mxfile>
